<?xml version="1.0" encoding="UTF-8"?>
<!DOCTYPE svg PUBLIC "-//W3C//DTD SVG 1.1//EN" "http://www.w3.org/Graphics/SVG/1.1/DTD/svg11.dtd">
<!-- Creator: CorelDRAW 2018 (64-Bit) -->
<?xml-stylesheet href="../AllFather.css" type="text/css"?>
<svg xmlns="http://www.w3.org/2000/svg" xml:space="preserve" width="11.0579mm" height="10.8365mm" version="1.1" style="shape-rendering:geometricPrecision; text-rendering:geometricPrecision; image-rendering:optimizeQuality; fill-rule:evenodd; clip-rule:evenodd"
viewBox="0 0 18.52 18.15"
 xmlns:xlink="http://www.w3.org/1999/xlink">
 <g id="Warstwa_x0020_1">
  <metadata id="CorelCorpID_0Corel-Layer"/>
  <g id="_1452485506752">
   <g>
    <g>
     <path fill="#E51A4B" d="M18.3 9.85c-0.15,-0.15 -0.32,-0.22 -0.52,-0.22l-2.59 0 0 -3.4 2 -2c0.15,-0.15 0.22,-0.32 0.22,-0.52 0,-0.2 -0.07,-0.37 -0.22,-0.52 -0.15,-0.15 -0.32,-0.22 -0.52,-0.22 -0.2,0 -0.37,0.07 -0.52,0.22l-2 2 -9.77 0 -2 -2c-0.15,-0.15 -0.32,-0.22 -0.52,-0.22 -0.2,0 -0.37,0.07 -0.52,0.22 -0.15,0.15 -0.22,0.32 -0.22,0.52 0,0.2 0.07,0.37 0.22,0.52l2 2 0 3.4 -2.59 0c-0.2,0 -0.37,0.07 -0.52,0.22 -0.15,0.15 -0.22,0.32 -0.22,0.52 0,0.2 0.07,0.37 0.22,0.52 0.15,0.15 0.32,0.22 0.52,0.22l2.59 0c0,1.23 0.22,2.29 0.67,3.17l-2.34 2.63c-0.13,0.15 -0.19,0.33 -0.18,0.54 0.01,0.2 0.09,0.38 0.24,0.51 0.15,0.12 0.31,0.19 0.5,0.19 0.22,0 0.4,-0.08 0.56,-0.24l2.12 -2.4 0.17 0.16c0.11,0.1 0.28,0.23 0.5,0.38 0.23,0.15 0.48,0.3 0.76,0.45 0.28,0.15 0.62,0.28 1.01,0.38 0.39,0.1 0.78,0.16 1.17,0.16l0 -10.37 1.48 0 0 10.37c0.37,0 0.74,-0.05 1.12,-0.15 0.38,-0.1 0.69,-0.21 0.95,-0.34 0.25,-0.12 0.51,-0.26 0.75,-0.42 0.25,-0.16 0.41,-0.27 0.49,-0.33 0.08,-0.06 0.14,-0.11 0.17,-0.15l2.29 2.28c0.14,0.15 0.31,0.22 0.52,0.22 0.21,0 0.38,-0.07 0.52,-0.22 0.15,-0.15 0.22,-0.32 0.22,-0.52 0,-0.2 -0.07,-0.37 -0.22,-0.52l-2.41 -2.42c0.52,-0.92 0.78,-2.04 0.78,-3.36l2.59 0c0.2,0 0.37,-0.07 0.52,-0.22 0.15,-0.15 0.22,-0.32 0.22,-0.52 0,-0.2 -0.07,-0.37 -0.22,-0.52z"/>
     <path fill="#E51A4B" d="M11.88 1.08c-0.72,-0.72 -1.6,-1.08 -2.62,-1.08 -1.03,0 -1.9,0.36 -2.62,1.08 -0.72,0.72 -1.08,1.6 -1.08,2.62l7.41 0c0,-1.03 -0.36,-1.9 -1.08,-2.62z"/>
    </g>
   </g>
   <g>
   </g>
   <g>
   </g>
   <g>
   </g>
   <g>
   </g>
   <g>
   </g>
   <g>
   </g>
   <g>
   </g>
   <g>
   </g>
   <g>
   </g>
   <g>
   </g>
   <g>
   </g>
   <g>
   </g>
   <g>
   </g>
   <g>
   </g>
   <g>
   </g>
  </g>
 </g>
</svg>
