<?xml version="1.0" encoding="UTF-8"?>
<!DOCTYPE svg PUBLIC "-//W3C//DTD SVG 1.1//EN" "http://www.w3.org/Graphics/SVG/1.1/DTD/svg11.dtd">
<!-- Creator: CorelDRAW 2018 (64-Bit) -->
<svg xmlns="http://www.w3.org/2000/svg" xml:space="preserve" width="10.722mm" height="12.1069mm" version="1.1" style="shape-rendering:geometricPrecision; text-rendering:geometricPrecision; image-rendering:optimizeQuality; fill-rule:evenodd; clip-rule:evenodd"
viewBox="0 0 18.89 21.33"
 xmlns:xlink="http://www.w3.org/1999/xlink">
 <defs>
  <style type="text/css">
   <![CDATA[
    .fil0 {fill:#0CBDB3}
   ]]>
  </style>
 </defs>
 <g id="Warstwa_x0020_1">
  <metadata id="CorelCorpID_0Corel-Layer"/>
  <g id="_1452481115728">
   <g>
    <path class="fil0" d="M17.69 7.63l-0.51 0 0 -2.47c0,-0.02 -0,-0.03 -0,-0.05 -0,-0.1 -0.03,-0.19 -0.1,-0.27l-4.11 -4.7c-0,-0 -0,-0 -0,-0 -0.02,-0.03 -0.05,-0.05 -0.08,-0.07 -0.01,-0.01 -0.02,-0.01 -0.03,-0.02 -0.03,-0.01 -0.05,-0.03 -0.08,-0.03 -0.01,-0 -0.01,-0.01 -0.02,-0.01 -0.03,-0.01 -0.06,-0.01 -0.1,-0.01l-10.11 0c-0.46,0 -0.84,0.38 -0.84,0.84l0 6.79 -0.51 0c-0.66,0 -1.2,0.54 -1.2,1.2l0 6.22c0,0.66 0.54,1.2 1.2,1.2l0.51 0 0 4.26c0,0.46 0.37,0.84 0.84,0.84l13.8 0c0.46,0 0.84,-0.38 0.84,-0.84l0 -4.26 0.51 0c0.66,0 1.2,-0.54 1.2,-1.2l0 -6.22c0,-0.66 -0.54,-1.2 -1.2,-1.2zm-15.15 -6.79l9.69 0 0 4.28c0,0.23 0.19,0.42 0.42,0.42l3.69 0 0 2.1 -13.8 0 0 -6.79zm8.6 10.97c0,1.86 -1.13,2.99 -2.78,2.99 -1.68,0 -2.67,-1.27 -2.67,-2.88 0,-1.7 1.08,-2.97 2.76,-2.97 1.74,0 2.69,1.3 2.69,2.87zm-9.17 2.89l0 -5.67 1.29 0 0 4.59 2.25 0 0 1.08 -3.54 0 0 0zm14.37 5.57l-13.8 0 0 -4.03 13.8 0 0 4.03 0 0zm0.38 -5.83c-0.4,0.13 -1.14,0.32 -1.89,0.32 -1.03,0 -1.78,-0.26 -2.3,-0.76 -0.52,-0.49 -0.81,-1.23 -0.8,-2.06 0.01,-1.88 1.38,-2.96 3.24,-2.96 0.73,0 1.3,0.14 1.57,0.28l-0.27 1.03c-0.31,-0.13 -0.7,-0.24 -1.32,-0.24 -1.07,0 -1.88,0.61 -1.88,1.83 0,1.17 0.73,1.86 1.78,1.86 0.29,0 0.53,-0.03 0.63,-0.08l0 -1.19 -0.87 0 0 -1 2.11 0 0 2.99 0 0z"/>
    <path class="fil0" d="M7.05 11.88c0,1.11 0.52,1.89 1.38,1.89 0.87,0 1.36,-0.82 1.36,-1.93 0,-1.02 -0.49,-1.89 -1.37,-1.89 -0.87,0 -1.37,0.82 -1.37,1.93z"/>
   </g>
   <g>
   </g>
   <g>
   </g>
   <g>
   </g>
   <g>
   </g>
   <g>
   </g>
   <g>
   </g>
   <g>
   </g>
   <g>
   </g>
   <g>
   </g>
   <g>
   </g>
   <g>
   </g>
   <g>
   </g>
   <g>
   </g>
   <g>
   </g>
   <g>
   </g>
  </g>
 </g>
</svg>
