<?xml version="1.0" encoding="UTF-8"?>
<!DOCTYPE svg PUBLIC "-//W3C//DTD SVG 1.1//EN" "http://www.w3.org/Graphics/SVG/1.1/DTD/svg11.dtd">
<!-- Creator: CorelDRAW 2018 (64-Bit) -->
<svg xmlns="http://www.w3.org/2000/svg" xml:space="preserve" width="2.2384mm" height="1.554mm" version="1.1" style="shape-rendering:geometricPrecision; text-rendering:geometricPrecision; image-rendering:optimizeQuality; fill-rule:evenodd; clip-rule:evenodd"
viewBox="0 0 268.77 186.59"
 xmlns:xlink="http://www.w3.org/1999/xlink">
 <defs>
 </defs>
 <g id="Warstwa_x0020_1">
  <metadata id="CorelCorpID_0Corel-Layer"/>
  <path fill="#d6d6d6" d="M134.39 0c-51.34,0 -98.06,33 -132.3,86 -2.77,4.32 -2.77,10.28 0,14.6 34.22,53.54 80.95,86 132.3,86 51.34,0 98.06,-33 132.3,-86 2.77,-4.32 2.77,-10.28 0,-14.6 -34.22,-53.54 -80.95,-86 -132.3,-86zm3.71 159.55c-34.23,2.7 -61.99,-30.29 -60.14,-70.31 1.85,-33 24.52,-59.5 52.74,-61.66 34.23,-2.7 61.98,30.29 60.14,70.31 -1.85,33 -24.52,59.5 -52.74,61.66zm-1.85 -30.28c-18.5,1.62 -33.31,-16.22 -32.38,-37.86 0.92,-17.84 13.41,-31.92 28.22,-33 18.52,-1.62 33.31,16.22 32.38,37.86 -0.92,17.84 -13.41,31.92 -28.22,33z"/>
 </g>
</svg>
